PathFileType	4	(X/Y/Z)	./resultDataOpenSim/trcMotMarkerGrf/sub06/qtm-14-03.trc
DataRate	CameraRate	NumFrames	NumMarkers	Units	OrigDataRate	OrigDataStartFrame	OrigNumFrames
250.000000	250.000000	5	24	m	250.000000	68	542
Frame#	Time	L.Toe.Tip			R.Toe.Tip			L.Ankle.Lat			R.Ankle.Lat			L.Ankle.Med			R.Ankle.Med			L.Heel			R.Heel			L.Knee.Lat			R.Knee.Lat			L.Knee.Med			R.Knee.Med			L.Thigh.Upper			R.Thigh.Upper			L.ASIS			R.ASIS			V.Sacral			L.Acromium			R.Acromium			C7			L.Elbow			R.Elbow			L.Wrist.Lat			R.Wrist.Lat
		X1	Y1	Z1	X2	Y2	Z2	X3	Y3	Z3	X4	Y4	Z4	X5	Y5	Z5	X6	Y6	Z6	X7	Y7	Z7	X8	Y8	Z8	X9	Y9	Z9	X10	Y10	Z10	X11	Y11	Z11	X12	Y12	Z12	X13	Y13	Z13	X14	Y14	Z14	X15	Y15	Z15	X16	Y16	Z16	X17	Y17	Z17	X18	Y18	Z18	X19	Y19	Z19	X20	Y20	Z20	X21	Y21	Z21	X22	Y22	Z22	X23	Y23	Z23	X24	Y24	Z24

68	0.268	-1.1683145	0.075014786	-0.087106223	-0.7769502	0.035734333	0.05710551	-1.1963649	0.20221617	-0.10743639	-0.911038	0.060717189	0.082903031	-1.1726213	0.2073014	-0.028042207	-0.89508098	0.082571029	-0.0029959363	-1.2503117	0.24786198	-0.053074314	-0.96780674	0.038844885	0.021820111	-0.88131897	0.4061892	-0.14727916	-0.84539618	0.44294111	0.12038395	-0.87609145	0.40059163	-0.021652208	-0.8836157	0.43584043	-0.0024663244	-0.95597475	0.79634636	-0.15045283	-0.93468173	0.80734209	0.19126359	-0.8803736	0.84617002	-0.11412274	-0.85003374	0.86196983	0.13059005	-1.0511972	0.93076896	0.027138059	-0.92101432	1.338653	-0.16794531	-0.91905649	1.3201708	0.19561903	-0.99966474	1.3683239	0.014288118	-0.94833328	1.0174683	-0.22519276	-1.0204847	1.0164333	0.24424544	-0.7809907	0.83644771	-0.21161862	-0.91307454	0.80755227	0.29372704
69	0.272	-1.1509278	0.074124044	-0.086483408	-0.77701162	0.035745571	0.057161008	-1.1818122	0.20048465	-0.10669279	-0.91106151	0.060773457	0.082980072	-1.1580345	0.20597431	-0.027344641	-0.89509834	0.082755104	-0.0028563007	-1.2368534	0.24480171	-0.052400244	-0.96787527	0.03888174	0.021893587	-0.86970151	0.40871711	-0.14679102	-0.84467144	0.44298635	0.12081627	-0.8645194	0.40334048	-0.021186014	-0.8822266	0.43618461	-0.0021460222	-0.94924812	0.79817178	-0.15076139	-0.9289673	0.8082526	0.19201172	-0.87402496	0.84817443	-0.11348813	-0.84380163	0.86323885	0.13156302	-1.0451261	0.93195572	0.027068845	-0.9156326	1.3402087	-0.16773384	-0.91284807	1.3220549	0.1956291	-0.99397947	1.3696833	0.014560037	-0.94485156	1.0194091	-0.2249828	-1.0128377	1.0176493	0.24516809	-0.77864466	0.83698712	-0.21218366	-0.90230051	0.81005062	0.29398839
70	0.276	-1.133302	0.073153428	-0.085910622	-0.77706403	0.035761179	0.057229061	-1.1671378	0.19858742	-0.10595077	-0.91105699	0.060808985	0.083047607	-1.1428879	0.20452897	-0.026755346	-0.89508368	0.082944036	-0.0027023989	-1.2232323	0.24142847	-0.05179179	-0.96794545	0.038915361	0.021972144	-0.85818853	0.41126618	-0.14626907	-0.84391975	0.44299207	0.12110534	-0.85295316	0.40623464	-0.020659519	-0.8813268	0.4363396	-0.0019558501	-0.9425255	0.79994479	-0.15113302	-0.92372084	0.80910559	0.19256651	-0.86764917	0.85015729	-0.11284309	-0.83784835	0.86448546	0.13253329	-1.0391513	0.93310022	0.027034034	-0.91025943	1.3417239	-0.16752576	-0.90672145	1.3238784	0.19563795	-0.98830277	1.3709945	0.014832255	-0.94120638	1.02127	-0.22451158	-1.0052635	1.0188663	0.24613341	-0.77628303	0.83753462	-0.21275915	-0.89152263	0.81257408	0.29421584
71	0.28	-1.1152647	0.072180699	-0.085508274	-0.77710386	0.035780612	0.057314617	-1.1523441	0.19652779	-0.10520306	-0.91108422	0.060786791	0.083097659	-1.1273211	0.20297761	-0.026187684	-0.89504654	0.083136928	-0.0025305463	-1.2095506	0.23783373	-0.051067645	-0.96801597	0.038973236	0.022057039	-0.84673768	0.41382848	-0.14571893	-0.84307988	0.44298125	0.12136295	-0.84135567	0.40927203	-0.020063037	-0.88122532	0.43623068	-0.0020053103	-0.93585712	0.80170149	-0.15135172	-0.91900159	0.80991985	0.1928763	-0.86135167	0.85209857	-0.11223172	-0.83254772	0.86569662	0.13343921	-1.0332746	0.93422812	0.027011909	-0.90488976	1.3431922	-0.16731964	-0.90065573	1.3256435	0.1956437	-0.98264309	1.3722636	0.015097692	-0.93744378	1.0230487	-0.22393016	-0.99772252	1.0200616	0.24711238	-0.77383952	0.83808774	-0.21331186	-0.88075696	0.81512809	0.29441659
72	0.284	-1.096826	0.071240802	-0.085245445	-0.77713141	0.035806057	0.057426164	-1.1374402	0.19431011	-0.10445201	-0.91117489	0.060716148	0.083145389	-1.1118371	0.2012841	-0.025476635	-0.89502138	0.083333199	-0.0023423818	-1.1958283	0.23402692	-0.050165395	-0.96808308	0.039066809	0.02215153	-0.83533235	0.41640716	-0.14514108	-0.84208217	0.4429885	0.1217045	-0.82984856	0.4123782	-0.019422172	-0.88157733	0.43599346	-0.0021770087	-0.9292049	0.80345851	-0.15136772	-0.91455201	0.81072101	0.19298613	-0.85515287	0.85399174	-0.11165962	-0.82774083	0.8668787	0.13424366	-1.0275389	0.93535438	0.026980081	-0.89952379	1.3446096	-0.16710736	-0.89462041	1.3273472	0.19564719	-0.97699914	1.3734884	0.015351233	-0.9335505	1.0247798	-0.2231885	-0.99019647	1.0212173	0.2480873	-0.77132464	0.8386488	-0.21383539	-0.86999893	0.81771687	0.29459621
